<?xml version="1.0" encoding="UTF-8"?>
<svg version="1.1" xmlns="http://www.w3.org/2000/svg" width="228" height="177">
<path d="M0 0 C75.24 0 150.48 0 228 0 C228 58.41 228 116.82 228 177 C152.76 177 77.52 177 0 177 C0 118.59 0 60.18 0 0 Z " fill="#FCFCFC" transform="translate(0,0)"/>
<path d="M0 0 C3.57810819 2.52093986 6.03458737 5.54323421 8.75 8.9375 C9.41 9.5975 10.07 10.2575 10.75 10.9375 C11.08 9.9475 11.41 8.9575 11.75 7.9375 C14 6.4375 14 6.4375 16.75 4.9375 C17.53375 4.380625 18.3175 3.82375 19.125 3.25 C22.46862745 1.57818628 25.06214626 1.72056743 28.75 1.9375 C28.83997924 7.06631696 28.68119789 11.8676448 27.75 16.9375 C27.255 17.4325 27.255 17.4325 26.75 17.9375 C28.4 18.2675 30.05 18.5975 31.75 18.9375 C31.77312392 29.09016151 31.79091534 39.2428168 31.80181217 49.39549923 C31.80704089 54.10929733 31.81413834 58.82307747 31.82543945 63.53686523 C31.83626873 68.08205404 31.84227692 72.62722552 31.84487724 77.17242622 C31.84673142 78.91044958 31.85035189 80.64847194 31.85573006 82.38648796 C31.86294103 84.81228595 31.86399092 87.23801146 31.86352539 89.66381836 C31.86712067 90.38958069 31.87071594 91.11534302 31.87442017 91.86309814 C31.86405216 96.82344784 31.86405216 96.82344784 30.75 97.9375 C28.41825197 98.04304346 26.11597514 98.08428558 23.78344727 98.08276367 C22.69077042 98.08780159 22.69077042 98.08780159 21.57601929 98.09294128 C19.15613116 98.1024786 16.73631202 98.10439578 14.31640625 98.10546875 C12.6411079 98.10867941 10.96580983 98.11204333 9.29051208 98.11555481 C5.77399037 98.12155305 2.25749327 98.123394 -1.2590332 98.12280273 C-5.77315104 98.12270107 -10.28711172 98.13635411 -14.80119228 98.15357494 C-18.26264679 98.1646737 -21.72406304 98.1667226 -25.18553352 98.16619301 C-26.85016484 98.16737631 -28.51479704 98.17181755 -30.17941093 98.17952538 C-32.50440464 98.1892826 -34.82905391 98.18646434 -37.15405273 98.18041992 C-37.84659653 98.18603943 -38.53914032 98.19165894 -39.25267029 98.19744873 C-44.02168419 98.16581581 -44.02168419 98.16581581 -46.25 95.9375 C-46.49050903 93.49508667 -46.49050903 93.49508667 -46.47705078 90.38623047 C-46.47689972 89.22517792 -46.47674866 88.06412537 -46.47659302 86.8678894 C-46.46627045 85.60953278 -46.45594788 84.35117615 -46.4453125 83.0546875 C-46.4424826 81.77014679 -46.43965271 80.48560608 -46.43673706 79.16213989 C-46.42909809 75.74587233 -46.40944752 72.32977463 -46.3873291 68.91357422 C-46.36687624 65.42808327 -46.35773655 61.9425649 -46.34765625 58.45703125 C-46.32620175 51.61711769 -46.29206271 44.777317 -46.25 37.9375 C-43.94 37.9375 -41.63 37.9375 -39.25 37.9375 C-37.6 41.5675 -35.95 45.1975 -34.25 48.9375 C-33.59 48.9375 -32.93 48.9375 -32.25 48.9375 C-32.25 47.9475 -32.25 46.9575 -32.25 45.9375 C-29.94 45.9375 -27.63 45.9375 -25.25 45.9375 C-23.89560332 48.64629335 -24.18498549 50.94683268 -24.25 53.9375 C-26.725 54.4325 -26.725 54.4325 -29.25 54.9375 C-23.72291389 55.87970126 -18.41241648 56.05866149 -12.8125 56 C-11.57209961 55.99323242 -11.57209961 55.99323242 -10.30664062 55.98632812 C-8.28772854 55.97465811 -6.26885426 55.95672718 -4.25 55.9375 C-4.125 62.6875 -4.125 62.6875 -5.25 64.9375 C-9.54 64.9375 -13.83 64.9375 -18.25 64.9375 C-18.58 63.2875 -18.91 61.6375 -19.25 59.9375 C-19.91 59.9375 -20.57 59.9375 -21.25 59.9375 C-21.25 61.2575 -21.25 62.5775 -21.25 63.9375 C-24.715 64.4325 -24.715 64.4325 -28.25 64.9375 C-27.55706008 73.10364643 -27.55706008 73.10364643 -23.25 79.9375 C-20.65846893 80.09746166 -18.0904798 80.19688697 -15.49609375 80.25390625 C-14.33292381 80.2850779 -14.33292381 80.2850779 -13.14625549 80.31687927 C-10.66009692 80.38245802 -8.17382955 80.44129799 -5.6875 80.5 C-4.00584796 80.54317733 -2.32420706 80.58679136 -0.64257812 80.63085938 C3.48816871 80.73814779 7.61902536 80.83939132 11.75 80.9375 C11.75 79.9475 11.75 78.9575 11.75 77.9375 C0.53 77.9375 -10.69 77.9375 -22.25 77.9375 C-25.25 70.9375 -25.25 70.9375 -25.25 67.9375 C-12.38 67.9375 0.49 67.9375 13.75 67.9375 C14.08 65.9575 14.41 63.9775 14.75 61.9375 C15.17454137 60.58383557 15.64116157 59.24221105 16.16015625 57.921875 C16.42763672 57.22835937 16.69511719 56.53484375 16.97070312 55.8203125 C17.24849609 55.11648437 17.52628906 54.41265625 17.8125 53.6875 C19.90341895 48.94664893 19.90341895 48.94664893 20.75 43.9375 C20.08458694 43.94273682 19.41917389 43.94797363 18.7335968 43.95336914 C11.80630865 44.00006407 4.88067977 43.99104836 -2.04663086 43.94970703 C-4.63158647 43.94159711 -7.21662725 43.94768323 -9.80151367 43.96826172 C-13.5185532 43.99538818 -17.23229699 43.97142914 -20.94921875 43.9375 C-22.68228523 43.96662476 -22.68228523 43.96662476 -24.45036316 43.99633789 C-27.58608987 43.94000178 -30.24208167 43.83048995 -33.25 42.9375 C-35.1157246 40.97130032 -36.12132928 39.24226786 -37.16755676 36.75 C-38.10615663 34.74588403 -38.10615663 34.74588403 -40.30082703 34.1875 C-42.79412136 33.86997667 -42.79412136 33.86997667 -46.25 33.9375 C-46.25 29.3175 -46.25 24.6975 -46.25 19.9375 C-40.31 19.9375 -34.37 19.9375 -28.25 19.9375 C-27.59 22.9075 -26.93 25.8775 -26.25 28.9375 C-24.58388095 28.980221 -22.91617115 28.97813832 -21.25 28.9375 C-19.32908908 27.22123595 -19.32908908 27.22123595 -19.25 19.9375 C-11.66 19.9375 -4.07 19.9375 3.75 19.9375 C4.245 21.4225 4.245 21.4225 4.75 22.9375 C5.64136305 14.66037005 5.64136305 14.66037005 2.5625 7.3125 C-1.0829097 4.23415403 -3.49345762 3.16173945 -8.1875 2.5625 C-12.79215944 3.12633585 -15.67094629 5.33578045 -18.8828125 8.59375 C-20.78236828 11.85013134 -20.81587585 15.01097559 -20.9375 18.6875 C-20.97166016 19.38488281 -21.00582031 20.08226563 -21.04101562 20.80078125 C-21.12308295 22.51247108 -21.18822919 24.2249576 -21.25 25.9375 C-22.57 26.2675 -23.89 26.5975 -25.25 26.9375 C-25.35871967 24.39466766 -25.43762401 21.85654912 -25.5 19.3125 C-25.53351563 18.59964844 -25.56703125 17.88679688 -25.6015625 17.15234375 C-25.69749471 11.92403848 -24.67042623 9.09963156 -21.25 4.9375 C-14.9686298 -1.3889518 -8.52670608 -2.78757699 0 0 Z " fill="#0D3F0B" transform="translate(122.25,19.0625)"/>
<path d="M0 0 C3.57810819 2.52093986 6.03458737 5.54323421 8.75 8.9375 C9.41 9.5975 10.07 10.2575 10.75 10.9375 C11.08 9.9475 11.41 8.9575 11.75 7.9375 C14 6.4375 14 6.4375 16.75 4.9375 C17.53375 4.380625 18.3175 3.82375 19.125 3.25 C22.46862745 1.57818628 25.06214626 1.72056743 28.75 1.9375 C28.83997924 7.06631696 28.68119789 11.8676448 27.75 16.9375 C27.255 17.4325 27.255 17.4325 26.75 17.9375 C28.4 18.2675 30.05 18.5975 31.75 18.9375 C31.77312392 29.09016151 31.79091534 39.2428168 31.80181217 49.39549923 C31.80704089 54.10929733 31.81413834 58.82307747 31.82543945 63.53686523 C31.83626873 68.08205404 31.84227692 72.62722552 31.84487724 77.17242622 C31.84673142 78.91044958 31.85035189 80.64847194 31.85573006 82.38648796 C31.86294103 84.81228595 31.86399092 87.23801146 31.86352539 89.66381836 C31.86712067 90.38958069 31.87071594 91.11534302 31.87442017 91.86309814 C31.86405216 96.82344784 31.86405216 96.82344784 30.75 97.9375 C28.41825197 98.04304346 26.11597514 98.08428558 23.78344727 98.08276367 C22.69077042 98.08780159 22.69077042 98.08780159 21.57601929 98.09294128 C19.15613116 98.1024786 16.73631202 98.10439578 14.31640625 98.10546875 C12.6411079 98.10867941 10.96580983 98.11204333 9.29051208 98.11555481 C5.77399037 98.12155305 2.25749327 98.123394 -1.2590332 98.12280273 C-5.77315104 98.12270107 -10.28711172 98.13635411 -14.80119228 98.15357494 C-18.26264679 98.1646737 -21.72406304 98.1667226 -25.18553352 98.16619301 C-26.85016484 98.16737631 -28.51479704 98.17181755 -30.17941093 98.17952538 C-32.50440464 98.1892826 -34.82905391 98.18646434 -37.15405273 98.18041992 C-37.84659653 98.18603943 -38.53914032 98.19165894 -39.25267029 98.19744873 C-44.02168419 98.16581581 -44.02168419 98.16581581 -46.25 95.9375 C-46.49050903 93.49508667 -46.49050903 93.49508667 -46.47705078 90.38623047 C-46.47689972 89.22517792 -46.47674866 88.06412537 -46.47659302 86.8678894 C-46.46627045 85.60953278 -46.45594788 84.35117615 -46.4453125 83.0546875 C-46.4424826 81.77014679 -46.43965271 80.48560608 -46.43673706 79.16213989 C-46.42909809 75.74587233 -46.40944752 72.32977463 -46.3873291 68.91357422 C-46.36687624 65.42808327 -46.35773655 61.9425649 -46.34765625 58.45703125 C-46.32620175 51.61711769 -46.29206271 44.777317 -46.25 37.9375 C-43.94 37.9375 -41.63 37.9375 -39.25 37.9375 C-37.6 41.5675 -35.95 45.1975 -34.25 48.9375 C-33.59 48.9375 -32.93 48.9375 -32.25 48.9375 C-32.25 47.9475 -32.25 46.9575 -32.25 45.9375 C-29.94 45.9375 -27.63 45.9375 -25.25 45.9375 C-23.89560332 48.64629335 -24.18498549 50.94683268 -24.25 53.9375 C-26.725 54.4325 -26.725 54.4325 -29.25 54.9375 C-23.72291389 55.87970126 -18.41241648 56.05866149 -12.8125 56 C-11.57209961 55.99323242 -11.57209961 55.99323242 -10.30664062 55.98632812 C-8.28772854 55.97465811 -6.26885426 55.95672718 -4.25 55.9375 C-4.125 62.6875 -4.125 62.6875 -5.25 64.9375 C-9.54 64.9375 -13.83 64.9375 -18.25 64.9375 C-18.58 63.2875 -18.91 61.6375 -19.25 59.9375 C-19.91 59.9375 -20.57 59.9375 -21.25 59.9375 C-21.25 61.2575 -21.25 62.5775 -21.25 63.9375 C-24.715 64.4325 -24.715 64.4325 -28.25 64.9375 C-27.71060633 71.19446656 -26.88698228 76.30051772 -22.25 80.9375 C-19.59462628 81.50270003 -16.95855287 81.67538198 -14.25 81.9375 C-15.24 82.9275 -15.24 82.9275 -16.25 83.9375 C-15.59 84.9275 -14.93 85.9175 -14.25 86.9375 C-14 90 -14 90 -14.25 92.9375 C-16.25 94.9375 -16.25 94.9375 -20.25 95.9375 C-3.75 95.9375 12.75 95.9375 29.75 95.9375 C30.08 70.8575 30.41 45.7775 30.75 19.9375 C24.81 19.9375 18.87 19.9375 12.75 19.9375 C12.75 22.5775 12.75 25.2175 12.75 27.9375 C10.75 29.9375 10.75 29.9375 8.25 30.1875 C5.75 29.9375 5.75 29.9375 3.75 27.9375 C3.625 25.3125 3.625 25.3125 3.75 22.9375 C4.08 22.9375 4.41 22.9375 4.75 22.9375 C5.64136305 14.66037005 5.64136305 14.66037005 2.5625 7.3125 C-1.0829097 4.23415403 -3.49345762 3.16173945 -8.1875 2.5625 C-12.79215944 3.12633585 -15.67094629 5.33578045 -18.8828125 8.59375 C-20.78236828 11.85013134 -20.81587585 15.01097559 -20.9375 18.6875 C-20.97166016 19.38488281 -21.00582031 20.08226563 -21.04101562 20.80078125 C-21.12308295 22.51247108 -21.18822919 24.2249576 -21.25 25.9375 C-22.57 26.2675 -23.89 26.5975 -25.25 26.9375 C-25.35871967 24.39466766 -25.43762401 21.85654912 -25.5 19.3125 C-25.53351563 18.59964844 -25.56703125 17.88679688 -25.6015625 17.15234375 C-25.69749471 11.92403848 -24.67042623 9.09963156 -21.25 4.9375 C-14.9686298 -1.3889518 -8.52670608 -2.78757699 0 0 Z " fill="#134411" transform="translate(122.25,19.0625)"/>
<path d="M0 0 C5.22362309 -0.43530192 5.22362309 -0.43530192 8 0 C10.7327424 2.59260176 11.81311669 4.43935006 13 8 C30.82 8.33 48.64 8.66 67 9 C68.21205531 12.63616593 67.66898648 13.58869753 66.34765625 17.10546875 C66.02031494 17.99129639 65.69297363 18.87712402 65.35571289 19.78979492 C64.71557251 21.47165894 64.71557251 21.47165894 64.0625 23.1875 C62.721875 26.755625 61.38125 30.32375 60 34 C47.13 34 34.26 34 21 34 C21.99 36.97 22.98 39.94 24 43 C35.22 43.33 46.44 43.66 58 44 C58 44.99 58 45.98 58 47 C53.08879777 47.12373184 48.17850515 47.21439824 43.26611328 47.2746582 C41.59570511 47.29978078 39.92540663 47.33388552 38.25537109 47.37719727 C35.8522638 47.43795399 33.45061096 47.46623021 31.046875 47.48828125 C30.30193787 47.51408768 29.55700073 47.5398941 28.78948975 47.56648254 C24.99562299 47.56852812 23.36754782 47.35097925 20.57910156 44.68823242 C18.14859405 40.55058274 16.75963314 36.88287373 17.375 32.0625 C17.684375 31.0415625 17.684375 31.0415625 18 30 C20.31 30 22.62 30 25 30 C25 28.68 25 27.36 25 26 C25.66 26 26.32 26 27 26 C27.33 27.65 27.66 29.3 28 31 C29.03125 30.814375 30.0625 30.62875 31.125 30.4375 C34.76148442 30.02692918 37.45437009 30.221691 41 31 C41.33 28.03 41.66 25.06 42 22 C40.70964844 22.08378906 39.41929688 22.16757813 38.08984375 22.25390625 C36.37241795 22.35713949 34.65496873 22.45998344 32.9375 22.5625 C32.08994141 22.61857422 31.24238281 22.67464844 30.36914062 22.73242188 C25.39662713 23.02040528 20.90223755 22.89796753 16 22 C16.33 21.34 16.66 20.68 17 20 C18.65 20 20.3 20 22 20 C21.67 17.36 21.34 14.72 21 12 C18.69 12 16.38 12 14 12 C14 12.99 14 13.98 14 15 C13.01 15.33 12.02 15.66 11 16 C9.68 12.37 8.36 8.74 7 5 C4.69 4.67 2.38 4.34 0 4 C0.33 23.47 0.66 42.94 1 63 C0.34 63 -0.32 63 -1 63 C-1.02316284 55.22878953 -1.04093523 47.45758714 -1.05181217 39.68635082 C-1.05703236 36.07791615 -1.06411436 32.46950508 -1.07543945 28.86108398 C-1.086299 25.37923767 -1.09228336 21.89741408 -1.09487724 18.41555214 C-1.0976261 16.43964005 -1.10543327 14.4637371 -1.11329651 12.48783875 C-1.11337204 11.28682022 -1.11344757 10.0858017 -1.11352539 8.84838867 C-1.115746 7.78915695 -1.11796661 6.72992523 -1.12025452 5.63859558 C-1 3 -1 3 0 0 Z " fill="#ECF2EC" transform="translate(76,53)"/>
<path d="M0 0 C6.7039198 0.1638736 10.31931425 1.09098811 15 6 C16.89678653 8.63900735 17.06810165 9.50058793 16.625 12.75 C16.315625 13.86375 16.315625 13.86375 16 15 C16.99 14.01 17.98 13.02 19 12 C19 16.29 19 20.58 19 25 C19.99 24.67 20.98 24.34 22 24 C22.00257812 22.99839844 22.00515625 21.99679688 22.0078125 20.96484375 C22.28634369 8.14113896 22.28634369 8.14113896 27.33203125 3.19921875 C31.61183631 0.12216921 34.50398565 -0.37601597 39.67578125 0.31640625 C43.61048227 1.47367125 46.30756925 3.9790286 49 7 C50.53266582 10.06533164 50.10276471 13.26754272 50.0625 16.625 C50.05798828 17.33140625 50.05347656 18.0378125 50.04882812 18.765625 C50.03703875 20.51045275 50.01910324 22.255237 50 24 C48 21 48 21 48 18 C40.41 18 32.82 18 25 18 C25 20.64 25 23.28 25 26 C23 28 23 28 20.5 28.3125 C19.675 28.209375 18.85 28.10625 18 28 C15.5705484 24.3558226 15.83820425 22.28758728 16 18 C14.35 18 12.7 18 11 18 C11 17.67 11 17.34 11 17 C9.9275 17 8.855 17 7.75 17 C4 16 4 16 2.64453125 14.43359375 C-0.01442422 9.52844485 -0.3935434 5.50960761 0 0 Z " fill="#F7F9F7" transform="translate(78,21)"/>
<path d="M0 0 C3.57810819 2.52093986 6.03458737 5.54323421 8.75 8.9375 C9.41 9.5975 10.07 10.2575 10.75 10.9375 C11.08 9.9475 11.41 8.9575 11.75 7.9375 C14 6.4375 14 6.4375 16.75 4.9375 C17.53375 4.380625 18.3175 3.82375 19.125 3.25 C22.46862745 1.57818628 25.06214626 1.72056743 28.75 1.9375 C28.83997924 7.06631696 28.68119789 11.8676448 27.75 16.9375 C27.255 17.4325 27.255 17.4325 26.75 17.9375 C28.4 18.2675 30.05 18.5975 31.75 18.9375 C31.75 44.6775 31.75 70.4175 31.75 96.9375 C30.76 96.9375 29.77 96.9375 28.75 96.9375 C29.08 96.6075 29.41 96.2775 29.75 95.9375 C29.87486954 93.56548453 29.93600052 91.22109657 29.95532227 88.84741211 C29.96522186 88.10599472 29.97512146 87.36457733 29.98532104 86.60069275 C30.01702466 84.13877607 30.04172826 81.67684007 30.06640625 79.21484375 C30.08696814 77.51232895 30.1079644 75.80981935 30.12937927 74.10731506 C30.18467899 69.61762691 30.23405328 65.12789208 30.28222656 60.63812256 C30.33238406 56.06013822 30.38810008 51.48222197 30.44335938 46.90429688 C30.55103753 37.91542049 30.6519475 28.92648654 30.75 19.9375 C24.81 19.9375 18.87 19.9375 12.75 19.9375 C12.75 22.5775 12.75 25.2175 12.75 27.9375 C10.75 29.9375 10.75 29.9375 8.25 30.1875 C5.75 29.9375 5.75 29.9375 3.75 27.9375 C3.625 25.3125 3.625 25.3125 3.75 22.9375 C4.08 22.9375 4.41 22.9375 4.75 22.9375 C5.64136305 14.66037005 5.64136305 14.66037005 2.5625 7.3125 C-1.0829097 4.23415403 -3.49345762 3.16173945 -8.1875 2.5625 C-12.79215944 3.12633585 -15.67094629 5.33578045 -18.8828125 8.59375 C-20.78236828 11.85013134 -20.81587585 15.01097559 -20.9375 18.6875 C-20.97166016 19.38488281 -21.00582031 20.08226563 -21.04101562 20.80078125 C-21.12308295 22.51247108 -21.18822919 24.2249576 -21.25 25.9375 C-22.57 26.2675 -23.89 26.5975 -25.25 26.9375 C-25.35871967 24.39466766 -25.43762401 21.85654912 -25.5 19.3125 C-25.53351563 18.59964844 -25.56703125 17.88679688 -25.6015625 17.15234375 C-25.69749471 11.92403848 -24.67042623 9.09963156 -21.25 4.9375 C-14.9686298 -1.3889518 -8.52670608 -2.78757699 0 0 Z " fill="#ECF7ED" transform="translate(122.25,19.0625)"/>
<path d="M0 0 C5.82071622 -0.02464638 11.64140234 -0.0428343 17.4621582 -0.05493164 C19.44393441 -0.05997267 21.42570689 -0.06680538 23.4074707 -0.07543945 C26.24952109 -0.08751515 29.09152247 -0.09323045 31.93359375 -0.09765625 C32.82525742 -0.10281754 33.71692108 -0.10797882 34.63560486 -0.11329651 C36.75740601 -0.11349177 38.8791078 -0.0621003 41 0 C41.495 0.495 41.495 0.495 42 1 C41.85665573 6.23757909 40.88208784 11.10657161 39 16 C38.505 15.01 38.505 15.01 38 14 C37.01 14 36.02 14 35 14 C34.855625 14.969375 34.71125 15.93875 34.5625 16.9375 C34 20 34 20 33 21 C30.80949979 20.90982004 28.621534 20.75333792 26.4375 20.5625 C25.23996094 20.46066406 24.04242188 20.35882813 22.80859375 20.25390625 C21.88175781 20.17011719 20.95492187 20.08632812 20 20 C19.95758277 17.66705225 19.95907063 15.33297433 20 13 C21 12 21 12 24.0625 11.9375 C25.5165625 11.9684375 25.5165625 11.9684375 27 12 C27 11.34 27 10.68 27 10 C26.071875 10.04125 25.14375 10.0825 24.1875 10.125 C21 10 21 10 18 8 C18 8.66 18 9.32 18 10 C12.39 9.67 6.78 9.34 1 9 C0.67 6.03 0.34 3.06 0 0 Z " fill="#E1E9E1" transform="translate(100,63)"/>
<path d="M0 0 C1.65 0 3.3 0 5 0 C6.1577506 3.47325181 6.06866652 6.36067448 6 10 C6.66 10 7.32 10 8 10 C7.979375 8.906875 7.95875 7.81375 7.9375 6.6875 C8 3 8 3 9 0 C10.65 0 12.3 0 14 0 C15.28317892 3.84953676 15.06643637 6.94738135 15 11 C15.66 11 16.32 11 17 11 C17.33 7.37 17.66 3.74 18 0 C19.65 0 21.3 0 23 0 C22.26990593 5.33748381 21.38713289 10.63500441 20.4375 15.9375 C20.29892578 16.71673828 20.16035156 17.49597656 20.01757812 18.29882812 C19.67943843 20.1994064 19.3398683 22.09973008 19 24 C17.33388095 24.042721 15.66617115 24.04063832 14 24 C11.54855763 21.54855763 11.53472196 15.10138734 11 12 C10.34 15.63 9.68 19.26 9 23 C7.35 23 5.7 23 4 23 C3.32667007 19.91808296 2.66251141 16.8342592 2 13.75 C1.80921875 12.87730469 1.6184375 12.00460938 1.421875 11.10546875 C1.24140625 10.26113281 1.0609375 9.41679687 0.875 8.546875 C0.70742187 7.77182617 0.53984375 6.99677734 0.3671875 6.19824219 C0 4 0 4 0 0 Z " fill="#1B491B" transform="translate(182,126)"/>
<path d="M0 0 C3.05019297 0.7962116 4.18121094 1.99277103 6.03515625 4.53125 C6.56640625 8.02734375 6.56640625 8.02734375 6.53515625 11.96875 C6.54546875 13.26683594 6.55578125 14.56492188 6.56640625 15.90234375 C5.96224596 20.02929162 5.07018229 21.70958256 2.03515625 24.53125 C-1.00493609 25.52321871 -2.68348194 25.05210108 -5.96484375 24.53125 C-9.28163473 20.55260503 -9.36997611 17.02596474 -9.33984375 11.96875 C-9.34757812 10.66808594 -9.3553125 9.36742187 -9.36328125 8.02734375 C-8.62190598 1.52213918 -6.47336523 0.09978212 0 0 Z " fill="#123E11" transform="translate(67.96484375,125.46875)"/>
<path d="M0 0 C1.0209375 -0.01160156 1.0209375 -0.01160156 2.0625 -0.0234375 C4 0.375 4 0.375 5.72265625 1.37109375 C7.79104249 4.61599326 7.47189922 8.08800215 7.4375 11.8125 C7.45748047 12.57626953 7.47746094 13.34003906 7.49804688 14.12695312 C7.49479671 17.86139683 7.42519705 19.7850621 5.1953125 22.87890625 C1.98951042 25.06364325 -0.21943778 24.92489996 -4 24.375 C-6.00609413 22.60055647 -6.88114922 21.16329808 -7.2824707 18.50146484 C-7.40428174 16.26373196 -7.40903522 14.05315204 -7.375 11.8125 C-7.38660156 11.04486328 -7.39820313 10.27722656 -7.41015625 9.48632812 C-7.38132662 3.97506305 -7.38132662 3.97506305 -5.7265625 1.37109375 C-3.6643056 0.18133015 -2.37472984 -0.02698557 0 0 Z " fill="#0E3D0C" transform="translate(173,125.625)"/>
<path d="M0 0 C2.31 0 4.62 0 7 0 C8.35439668 2.70879335 8.06501451 5.00933268 8 8 C6.35 8.33 4.7 8.66 3 9 C8.52708611 9.94220126 13.83758352 10.12116149 19.4375 10.0625 C20.67790039 10.05573242 20.67790039 10.05573242 21.94335938 10.04882812 C23.96227146 10.03715811 25.98114574 10.01922718 28 10 C28.125 16.75 28.125 16.75 27 19 C22.71 19 18.42 19 14 19 C13.67 17.35 13.34 15.7 13 14 C12.34 14 11.68 14 11 14 C11 15.32 11 16.64 11 18 C9.329375 18.2165625 9.329375 18.2165625 7.625 18.4375 C4.17857953 18.78372035 4.17857953 18.78372035 2 20 C1.32389577 18.10751181 0.65949561 16.2108398 0 14.3125 C-0.37125 13.25675781 -0.7425 12.20101562 -1.125 11.11328125 C-1.9391857 8.21637944 -2.17709796 5.98299377 -2 3 C-1.34 3 -0.68 3 0 3 C0 2.01 0 1.02 0 0 Z " fill="#CCD9CA" transform="translate(90,65)"/>
<path d="M0 0 C11 0 11 0 13.75 1.4375 C15.43415548 4.89001874 14.92434596 7.35985887 14.26171875 11.07421875 C14.17535156 11.70972656 14.08898437 12.34523437 14 13 C14.33 13.33 14.66 13.66 15 14 C15.07205511 15.68608966 15.08386068 17.37500659 15.0625 19.0625 C15.05347656 19.98160156 15.04445313 20.90070313 15.03515625 21.84765625 C15.02355469 22.55792969 15.01195313 23.26820313 15 24 C13.35 24 11.7 24 10 24 C9.67 21.03 9.34 18.06 9 15 C7.68 14.67 6.36 14.34 5 14 C5 17.3 5 20.6 5 24 C3.35 24 1.7 24 0 24 C0 16.08 0 8.16 0 0 Z " fill="#234E21" transform="translate(109,126)"/>
<path d="M0 0 C1.65 0 3.3 0 5 0 C6.32 2.97 7.64 5.94 9 9 C9.33 6.03 9.66 3.06 10 0 C11.65 0 13.3 0 15 0 C15 7.92 15 15.84 15 24 C13.02 24 11.04 24 9 24 C8.01 20.7 7.02 17.4 6 14 C5.67 16.97 5.34 19.94 5 23 C3.35 23 1.7 23 0 23 C0 15.41 0 7.82 0 0 Z " fill="#2B552B" transform="translate(148,126)"/>
<path d="M0 0 C3.63 0 7.26 0 11 0 C14 3 14 3 14.1875 6.4375 C14.125625 7.613125 14.06375 8.78875 14 10 C14 11.32 14 12.64 14 14 C14 17.33333333 14 20.66666667 14 24 C12.35 23.67 10.7 23.34 9 23 C8.67 20.36 8.34 17.72 8 15 C7.01 14.67 6.02 14.34 5 14 C5 17.3 5 20.6 5 24 C3.35 24 1.7 24 0 24 C0 16.08 0 8.16 0 0 Z " fill="#2E562D" transform="translate(42,126)"/>
<path d="M0 0 C0.98291016 0.00322266 1.96582031 0.00644531 2.97851562 0.00976562 C4.51475586 0.02233398 4.51475586 0.02233398 6.08203125 0.03515625 C7.63567383 0.04192383 7.63567383 0.04192383 9.22070312 0.04882812 C11.77870391 0.06061615 14.33658858 0.0770711 16.89453125 0.09765625 C15.89453125 2.09765625 15.89453125 2.09765625 12.83203125 3.22265625 C11.86265625 3.51140625 10.89328125 3.80015625 9.89453125 4.09765625 C9.47562907 6.88703837 9.47562907 6.88703837 9.89453125 10.09765625 C12.34503034 12.7984118 12.34503034 12.7984118 14.89453125 15.09765625 C10.60292078 15.15549467 6.3114098 15.19119745 2.01953125 15.22265625 C0.79621094 15.23941406 -0.42710938 15.25617188 -1.6875 15.2734375 C-3.43740234 15.28310547 -3.43740234 15.28310547 -5.22265625 15.29296875 C-6.30144043 15.30344238 -7.38022461 15.31391602 -8.49169922 15.32470703 C-11.10546875 15.09765625 -11.10546875 15.09765625 -13.10546875 13.09765625 C-10.79546875 12.43765625 -8.48546875 11.77765625 -6.10546875 11.09765625 C-5.92604712 7.15038037 -6.01196186 4.49960495 -8.10546875 1.09765625 C-5.10530963 0.09760321 -3.13123119 -0.0180996 0 0 Z " fill="#063B05" transform="translate(113.10546875,100.90234375)"/>
<path d="M0 0 C3.04697286 0.15711831 3.97292493 0.43729745 6.5625 2.25 C8.0625 4.5 8.0625 4.5 8.0625 8.5 C6.4125 8.5 4.7625 8.5 3.0625 8.5 C2.7325 7.51 2.4025 6.52 2.0625 5.5 C1.0725 5.5 0.0825 5.5 -0.9375 5.5 C-0.9375 10.12 -0.9375 14.74 -0.9375 19.5 C0.0525 19.5 1.0425 19.5 2.0625 19.5 C2.3925 18.18 2.7225 16.86 3.0625 15.5 C2.4025 15.5 1.7425 15.5 1.0625 15.5 C1.0625 14.18 1.0625 12.86 1.0625 11.5 C3.3725 11.5 5.6825 11.5 8.0625 11.5 C8.0625 15.79 8.0625 20.08 8.0625 24.5 C6.4125 24.17 4.7625 23.84 3.0625 23.5 C2.7325 23.83 2.4025 24.16 2.0625 24.5 C-0.8125 24.875 -0.8125 24.875 -3.9375 24.5 C-7.2149316 20.479786 -7.34272888 17.01091329 -7.3125 11.9375 C-7.32023437 10.63683594 -7.32796875 9.33617187 -7.3359375 7.99609375 C-6.70264428 2.43925616 -5.61285774 0.71274384 0 0 Z " fill="#2A4F29" transform="translate(30.9375,125.5)"/>
<path d="M0 0 C4.05523038 2.85709413 7.51585617 6.46921234 9.75 10.9375 C9.82181821 13.65510108 9.84299506 16.34609388 9.8125 19.0625 C9.80798828 19.81660156 9.80347656 20.57070313 9.79882812 21.34765625 C9.78703499 23.21097127 9.76909942 25.07424555 9.75 26.9375 C8.76 26.9375 7.77 26.9375 6.75 26.9375 C6.72421875 25.99648438 6.6984375 25.05546875 6.671875 24.0859375 C6.45753961 14.64919661 6.45753961 14.64919661 1.75 6.9375 C1.193125 6.339375 0.63625 5.74125 0.0625 5.125 C-3.58893927 3.24993659 -7.15791817 2.6959535 -11.25 2.9375 C-15.24209009 4.93354504 -17.98815868 7.09941799 -20.25 10.9375 C-20.61917274 13.58652575 -20.84968888 16.03309527 -20.9375 18.6875 C-20.97166016 19.38488281 -21.00582031 20.08226563 -21.04101562 20.80078125 C-21.12308295 22.51247108 -21.18822919 24.2249576 -21.25 25.9375 C-22.57 26.2675 -23.89 26.5975 -25.25 26.9375 C-25.35871967 24.39466766 -25.43762401 21.85654912 -25.5 19.3125 C-25.53351563 18.59964844 -25.56703125 17.88679688 -25.6015625 17.15234375 C-25.69749471 11.92403848 -24.67042623 9.09963156 -21.25 4.9375 C-14.9686298 -1.3889518 -8.52670608 -2.78757699 0 0 Z " fill="#144213" transform="translate(122.25,19.0625)"/>
<path d="M0 0 C13.53 0 27.06 0 41 0 C41.495 2.475 41.495 2.475 42 5 C41.34 5 40.68 5 40 5 C40 4.01 40 3.02 40 2 C36.37 2.66 32.74 3.32 29 4 C29 3.34 29 2.68 29 2 C26.69 2.33 24.38 2.66 22 3 C21.67 4.98 21.34 6.96 21 9 C20.01 8.67 19.02 8.34 18 8 C18 8.66 18 9.32 18 10 C12.39 9.67 6.78 9.34 1 9 C0.67 6.03 0.34 3.06 0 0 Z " fill="#F3F8F3" transform="translate(100,63)"/>
<path d="M0 0 C3.5 0.5625 3.5 0.5625 5.9375 2.25 C7.75953249 4.94660809 7.85430394 6.37376451 7.5 9.5625 C5.85 9.5625 4.2 9.5625 2.5 9.5625 C2.17 8.2425 1.84 6.9225 1.5 5.5625 C0.51 5.5625 -0.48 5.5625 -1.5 5.5625 C-1.5 10.5125 -1.5 15.4625 -1.5 20.5625 C-0.51 20.2325 0.48 19.9025 1.5 19.5625 C1.83 17.9125 2.16 16.2625 2.5 14.5625 C4.15 14.5625 5.8 14.5625 7.5 14.5625 C6.90550688 20.86412703 6.90550688 20.86412703 5.375 23.5 C2.36086748 25.20800843 -0.12088399 24.92454814 -3.5 24.5625 C-6.11593153 22.73134793 -6.46989455 21.65281634 -7.5 18.5625 C-7.67066284 16.44180439 -7.7662598 14.31454902 -7.8125 12.1875 C-7.84988281 11.06601563 -7.88726562 9.94453125 -7.92578125 8.7890625 C-7.23293947 3.53872021 -5.26907549 0.8468157 0 0 Z " fill="#20491E" transform="translate(83.5,125.4375)"/>
<path d="M0 0 C4.29 0 8.58 0 13 0 C13 1.32 13 2.64 13 4 C10.03 4 7.06 4 4 4 C4 5.65 4 7.3 4 9 C6.31 9 8.62 9 11 9 C11.5625 10.9375 11.5625 10.9375 12 13 C11 14 11 14 7.9375 14.0625 C6.968125 14.041875 5.99875 14.02125 5 14 C5 15.65 5 17.3 5 19 C7.31 19 9.62 19 12 19 C12.5625 20.9375 12.5625 20.9375 13 23 C12.67 23.33 12.34 23.66 12 24 C8.04 24 4.08 24 0 24 C0 16.08 0 8.16 0 0 Z " fill="#073905" transform="translate(94,126)"/>
<path d="M0 0 C0 0.99 0 1.98 0 3 C0.99 3 1.98 3 3 3 C3.33 2.34 3.66 1.68 4 1 C4 2.98 4 4.96 4 7 C3.67 6.34 3.34 5.68 3 5 C1.68 5 0.36 5 -1 5 C-1 5.66 -1 6.32 -1 7 C-3.77723925 7.78688445 -6.22610077 8.11949924 -9.109375 8.09765625 C-9.86347656 8.09443359 -10.61757812 8.09121094 -11.39453125 8.08789062 C-12.17183594 8.07951172 -12.94914062 8.07113281 -13.75 8.0625 C-14.54277344 8.05798828 -15.33554688 8.05347656 -16.15234375 8.04882812 C-18.10159508 8.03708565 -20.05080738 8.01915146 -22 8 C-22 7.34 -22 6.68 -22 6 C-22.66 5.67 -23.32 5.34 -24 5 C-24.33 5.66 -24.66 6.32 -25 7 C-25 5.02 -25 3.04 -25 1 C-23.865625 1.020625 -22.73125 1.04125 -21.5625 1.0625 C-18.18424326 1.41577477 -18.18424326 1.41577477 -17 0 C-11.25214403 -0.88127264 -5.70123984 -1.38678807 0 0 Z " fill="#9BAA9B" transform="translate(124,154)"/>
<path d="M0 0 C3.3 0 6.6 0 10 0 C10.33 0.99 10.66 1.98 11 3 C11.33 2.34 11.66 1.68 12 1 C12.66 1 13.32 1 14 1 C14 2.98 14 4.96 14 7 C11.00293305 7.86963087 8.35043474 8.11763099 5.234375 8.09765625 C4.34492188 8.09443359 3.45546875 8.09121094 2.5390625 8.08789062 C1.61867187 8.07951172 0.69828125 8.07113281 -0.25 8.0625 C-1.65378906 8.05573242 -1.65378906 8.05573242 -3.0859375 8.04882812 C-5.39069041 8.03706918 -7.69531227 8.02063426 -10 8 C-10.33 7.01 -10.66 6.02 -11 5 C-11.99 5 -12.98 5 -14 5 C-14.33 5.66 -14.66 6.32 -15 7 C-15 5.02 -15 3.04 -15 1 C-12.66666667 1 -10.33333333 1 -8 1 C-6.989375 0.979375 -5.97875 0.95875 -4.9375 0.9375 C-2 1 -2 1 -1 2 C-0.67 1.34 -0.34 0.68 0 0 Z " fill="#B4C0B3" transform="translate(157,154)"/>
<path d="M0 0 C1.65 0 3.3 0 5 0 C5.66 2.31 6.32 4.62 7 7 C7.66 7 8.32 7 9 7 C9.144375 6.030625 9.28875 5.06125 9.4375 4.0625 C10 1 10 1 11 0 C12.66617115 -0.04063832 14.33388095 -0.042721 16 0 C15.04085432 3.09877834 14.10188481 5.82883352 12.4375 8.625 C10.31491811 13.60845314 10.2518734 18.6324911 10 24 C8.35 24 6.7 24 5 24 C4.96132812 22.85724609 4.96132812 22.85724609 4.921875 21.69140625 C4.57570547 15.38954727 3.7773352 10.453484 0.83984375 4.83984375 C0 3 0 3 0 0 Z " fill="#184617" transform="translate(125,126)"/>
<path d="M0 0 C6.7039198 0.1638736 10.31931425 1.09098811 15 6 C16.89678653 8.63900735 17.06810165 9.50058793 16.625 12.75 C16.315625 13.86375 16.315625 13.86375 16 15 C14.88625 13.8553125 14.88625 13.8553125 13.75 12.6875 C11.5736677 10.5606298 9.47832204 8.7440044 7 7 C7.474375 7.763125 7.94875 8.52625 8.4375 9.3125 C10 12 10 12 11 15 C7.6875 15.25 7.6875 15.25 4 15 C1.33357803 12.42245876 0.08170821 9.70933579 -0.09765625 5.95703125 C-0.06510417 3.97135417 -0.03255208 1.98567708 0 0 Z " fill="#134212" transform="translate(78,21)"/>
<path d="M0 0 C0.29268781 5.65863105 0.03522952 9.02222358 -3 14 C-4 15 -4 15 -7.5625 15.0625 C-8.696875 15.041875 -9.83125 15.02125 -11 15 C-9.66666667 12.33333333 -8.33333333 9.66666667 -7 7 C-10.21203935 9.49825283 -13.17493137 12.0702992 -16 15 C-16.42397033 10.76029672 -16.43792242 8.01657823 -13.75 4.6875 C-9.08367372 0.12722659 -6.54683359 -0.25180129 0 0 Z " fill="#134313" transform="translate(151,21)"/>
<path d="M0 0 C0.33 0 0.66 0 1 0 C1 7.59 1 15.18 1 23 C0.67 23 0.34 23 0 23 C-0.144375 22.2575 -0.28875 21.515 -0.4375 20.75 C-0.90187492 18.47972261 -1.41863569 16.24240521 -2 14 C-3.65 14 -5.3 14 -7 14 C-7 15.65 -7 17.3 -7 19 C-8.32 19.33 -9.64 19.66 -11 20 C-12.44207941 17.11584117 -12.09394887 14.58278472 -12.0625 11.375 C-12.05347656 10.18648437 -12.04445313 8.99796875 -12.03515625 7.7734375 C-12.02355469 6.85820312 -12.01195313 5.94296875 -12 5 C-10.68 4.67 -9.36 4.34 -8 4 C-7.67 5.65 -7.34 7.3 -7 9 C-5.35 9 -3.7 9 -2 9 C-2 7.68 -2 6.36 -2 5 C-1.34 5 -0.68 5 0 5 C0 3.35 0 1.7 0 0 Z " fill="#ECF2EC" transform="translate(93,126)"/>
<path d="M0 0 C0.66 0 1.32 0 2 0 C2 7.26 2 14.52 2 22 C1.01 22 0.02 22 -1 22 C-1 21.01 -1 20.02 -1 19 C-3.31 18.67 -5.62 18.34 -8 18 C-8 16.35 -8 14.7 -8 13 C-6.02 12.67 -4.04 12.34 -2 12 C-2 11.01 -2 10.02 -2 9 C-4.31 8.67 -6.62 8.34 -9 8 C-9 6.35 -9 4.7 -9 3 C-6.03 3 -3.06 3 0 3 C0 2.01 0 1.02 0 0 Z " fill="#EDF2ED" transform="translate(107,127)"/>
<path d="M0 0 C2.475 0.495 2.475 0.495 5 1 C5.33 1.99 5.66 2.98 6 4 C6.66 4 7.32 4 8 4 C8.33 2.68 8.66 1.36 9 0 C9.33 0 9.66 0 10 0 C9.91621094 0.63808594 9.83242187 1.27617187 9.74609375 1.93359375 C9.64425781 2.75988281 9.54242188 3.58617187 9.4375 4.4375 C9.33308594 5.26121094 9.22867188 6.08492187 9.12109375 6.93359375 C9.08113281 7.61550781 9.04117188 8.29742187 9 9 C9.33 9.33 9.66 9.66 10 10 C10.07205511 11.68608966 10.08386068 13.37500659 10.0625 15.0625 C10.05347656 15.98160156 10.04445313 16.90070313 10.03515625 17.84765625 C10.02355469 18.55792969 10.01195313 19.26820313 10 20 C8.35 20 6.7 20 5 20 C4.97421875 19.37351563 4.9484375 18.74703125 4.921875 18.1015625 C4.86515625 17.28429687 4.8084375 16.46703125 4.75 15.625 C4.70359375 14.81289062 4.6571875 14.00078125 4.609375 13.1640625 C4.2077908 10.81161073 4.2077908 10.81161073 1.953125 9.7109375 C1.30859375 9.47632813 0.6640625 9.24171875 0 9 C0.66 9 1.32 9 2 9 C2 8.34 2 7.68 2 7 C1.34 7 0.68 7 0 7 C0 4.69 0 2.38 0 0 Z " fill="#285228" transform="translate(114,130)"/>
<path d="M0 0 C0.91007812 0.00902344 1.82015625 0.01804687 2.7578125 0.02734375 C3.80582031 0.04474609 3.80582031 0.04474609 4.875 0.0625 C4.875 0.3925 4.875 0.7225 4.875 1.0625 C0.42 1.5575 0.42 1.5575 -4.125 2.0625 C-4.455 3.0525 -4.785 4.0425 -5.125 5.0625 C-7.10456942 6.75338222 -9.10445196 8.42080472 -11.125 10.0625 C-12.64606634 13.10463267 -12.49929338 16.34297572 -12.6875 19.6875 C-12.73068359 20.39390625 -12.77386719 21.1003125 -12.81835938 21.828125 C-12.92444751 23.57268537 -13.02522889 25.31756697 -13.125 27.0625 C-14.445 27.3925 -15.765 27.7225 -17.125 28.0625 C-17.23371967 25.51966766 -17.31262401 22.98154912 -17.375 20.4375 C-17.40851563 19.72464844 -17.44203125 19.01179688 -17.4765625 18.27734375 C-17.57249471 13.04903848 -16.54542623 10.22463156 -13.125 6.0625 C-8.99187758 1.89971402 -5.87177474 -0.07527916 0 0 Z " fill="#194318" transform="translate(114.125,17.9375)"/>
<path d="M0 0 C2.31 0 4.62 0 7 0 C8.35439668 2.70879335 8.06501451 5.00933268 8 8 C6.35 8.33 4.7 8.66 3 9 C5.97 9.495 5.97 9.495 9 10 C9 10.33 9 10.66 9 11 C7.35 11.33 5.7 11.66 4 12 C4.33 13.98 4.66 15.96 5 18 C4.01 18.66 3.02 19.32 2 20 C1.32389577 18.10751181 0.65949561 16.2108398 0 14.3125 C-0.37125 13.25675781 -0.7425 12.20101562 -1.125 11.11328125 C-1.9391857 8.21637944 -2.17709796 5.98299377 -2 3 C-1.34 3 -0.68 3 0 3 C0 2.01 0 1.02 0 0 Z " fill="#DEE7DE" transform="translate(90,65)"/>
<path d="M0 0 C5.28497409 -0.44041451 5.28497409 -0.44041451 8 0 C10.5 2.5 10.5 2.5 12 5 C11.34 6.65 10.68 8.3 10 10 C8 8 8 8 7 5 C4.69 4.67 2.38 4.34 0 4 C0.33 23.47 0.66 42.94 1 63 C0.34 63 -0.32 63 -1 63 C-1.02316284 55.22878953 -1.04093523 47.45758714 -1.05181217 39.68635082 C-1.05703236 36.07791615 -1.06411436 32.46950508 -1.07543945 28.86108398 C-1.086299 25.37923767 -1.09228336 21.89741408 -1.09487724 18.41555214 C-1.0976261 16.43964005 -1.10543327 14.4637371 -1.11329651 12.48783875 C-1.11337204 11.28682022 -1.11344757 10.0858017 -1.11352539 8.84838867 C-1.115746 7.78915695 -1.11796661 6.72992523 -1.12025452 5.63859558 C-1 3 -1 3 0 0 Z " fill="#F4F9F1" transform="translate(76,53)"/>
<path d="M0 0 C0.33 0 0.66 0 1 0 C1 7.59 1 15.18 1 23 C0.67 23 0.34 23 0 23 C-0.19667089 20.47958689 -0.38254317 17.95911728 -0.5625 15.4375 C-0.61857422 14.73302734 -0.67464844 14.02855469 -0.73242188 13.30273438 C-1.05157754 8.68561569 -0.80878035 4.5591248 0 0 Z M-11 4 C-8.9375 4.4375 -8.9375 4.4375 -7 5 C-7 5.99 -7 6.98 -7 8 C-5.02 8 -3.04 8 -1 8 C-1.33 8.99 -1.66 9.98 -2 11 C-4.31 11 -6.62 11 -9 11 C-9 12.32 -9 13.64 -9 15 C-8.34 15 -7.68 15 -7 15 C-7.33 16.65 -7.66 18.3 -8 20 C-9.32 19.67 -10.64 19.34 -12 19 C-12.02685412 16.68756208 -12.04632841 14.3750373 -12.0625 12.0625 C-12.07410156 10.77472656 -12.08570312 9.48695313 -12.09765625 8.16015625 C-12 5 -12 5 -11 4 Z " fill="#CBD8CB" transform="translate(41,126)"/>
<path d="M0 0 C2.4375 1.6875 2.4375 1.6875 4 4 C4.25 6.75 4.25 6.75 4 9 C2.35 9 0.7 9 -1 9 C-1.33 7.68 -1.66 6.36 -2 5 C-2.99 5 -3.98 5 -5 5 C-6.485 11.435 -6.485 11.435 -8 18 C-10.29783606 14.55324591 -10.29754883 13.06671888 -10.3125 9 C-10.32925781 7.948125 -10.34601563 6.89625 -10.36328125 5.8125 C-10 3 -10 3 -8.6953125 1.15234375 C-5.80276983 -0.81378548 -3.37225179 -0.41413619 0 0 Z " fill="#1F491F" transform="translate(87,126)"/>
<path d="M0 0 C2.9375 0.75 2.9375 0.75 4.9375 2.75 C5.1875 5.75 5.1875 5.75 4.9375 8.75 C2.9375 10.75 2.9375 10.75 0 11.0625 C-3.0625 10.75 -3.0625 10.75 -4.9375 9.625 C-6.58399743 6.88083761 -6.46214378 4.8805429 -6.0625 1.75 C-3.0625 -0.25 -3.0625 -0.25 0 0 Z " fill="#8AA089" transform="translate(103.0625,103.25)"/>
<path d="M0 0 C3.00822372 0.6052764 4.26761952 1.8799449 5.94140625 4.390625 C5.94140625 5.710625 5.94140625 7.030625 5.94140625 8.390625 C4.29140625 8.390625 2.64140625 8.390625 0.94140625 8.390625 C0.61140625 7.400625 0.28140625 6.410625 -0.05859375 5.390625 C-1.04859375 5.390625 -2.03859375 5.390625 -3.05859375 5.390625 C-3.38859375 9.350625 -3.71859375 13.310625 -4.05859375 17.390625 C-4.38859375 17.390625 -4.71859375 17.390625 -5.05859375 17.390625 C-5.05859375 13.430625 -5.05859375 9.470625 -5.05859375 5.390625 C-6.04859375 5.390625 -7.03859375 5.390625 -8.05859375 5.390625 C-8.05859375 10.010625 -8.05859375 14.630625 -8.05859375 19.390625 C-8.38859375 19.390625 -8.71859375 19.390625 -9.05859375 19.390625 C-9.13977326 16.97327958 -9.19916301 14.55867551 -9.24609375 12.140625 C-9.27123047 11.45871094 -9.29636719 10.77679688 -9.32226562 10.07421875 C-9.36760684 6.96078834 -9.23179026 4.72632688 -7.79296875 1.9375 C-5.3806946 -0.21398775 -3.14407179 -0.16212525 0 0 Z " fill="#254E24" transform="translate(33.05859375,125.609375)"/>
<path d="M0 0 C2.875 0.6875 2.875 0.6875 3.875 1.6875 C4.33191383 6.94200902 4.33191383 6.94200902 2.6875 9.625 C0.875 10.6875 0.875 10.6875 -1.6875 10.5 C-4.125 9.6875 -4.125 9.6875 -6.125 7.6875 C-6.4375 4.6875 -6.4375 4.6875 -6.125 1.6875 C-3.125 -0.3125 -3.125 -0.3125 0 0 Z " fill="#E2EAE1" transform="translate(128.125,103.3125)"/>
<path d="M0 0 C0.99 0 1.98 0 3 0 C3 7.26 3 14.52 3 22 C1.35 21.67 -0.3 21.34 -2 21 C-3.35439668 18.29120665 -3.06501451 15.99066732 -3 13 C-2.01 13 -1.02 13 0 13 C0 8.71 0 4.42 0 0 Z " fill="#083A07" transform="translate(159,127)"/>
<path d="M0 0 C3.79379058 1.49041773 5.68343758 3.69062512 8 7 C8 7.66 8 8.32 8 9 C10.33075929 8.04134491 10.33075929 8.04134491 12 5 C12 9.95 12 14.9 12 20 C13.32 20.33 14.64 20.66 16 21 C13.625 21.1875 13.625 21.1875 11 21 C8.5705484 17.3558226 8.83820425 15.28758728 9 11 C7.35 11 5.7 11 4 11 C4 10.67 4 10.34 4 10 C1.69 9.67 -0.62 9.34 -3 9 C-3 8.67 -3 8.34 -3 8 C-0.69 8 1.62 8 4 8 C3.01 6.8553125 3.01 6.8553125 2 5.6875 C0 3 0 3 0 0 Z " fill="#D6E1D6" transform="translate(85,28)"/>
<path d="M0 0 C2.64 0 5.28 0 8 0 C8 1.98 8 3.96 8 6 C8.33 5.34 8.66 4.68 9 4 C10.32 4 11.64 4 13 4 C13 3.34 13 2.68 13 2 C11.68 1.67 10.36 1.34 9 1 C10.98 0.67 12.96 0.34 15 0 C15 0.99 15 1.98 15 3 C17.475 3.495 17.475 3.495 20 4 C18.02 4.99 18.02 4.99 16 6 C16 6.33 16 6.66 16 7 C11.71 7 7.42 7 3 7 C3 6.34 3 5.68 3 5 C2.34 4.67 1.68 4.34 1 4 C0.67 4.66 0.34 5.32 0 6 C0 4.02 0 2.04 0 0 Z " fill="#E2ECE2" transform="translate(99,155)"/>
<path d="M0 0 C1.98 0 3.96 0 6 0 C6 0.99 6 1.98 6 3 C5.01 3 4.02 3 3 3 C3.25561323 5.3431213 3.59270772 7.67843403 4 10 C4.66 10.33 5.32 10.66 6 11 C6 11.66 6 12.32 6 13 C5.01 13 4.02 13 3 13 C3 15.97 3 18.94 3 22 C2.01 22 1.02 22 0 22 C0 14.74 0 7.48 0 0 Z " fill="#053A04" transform="translate(43,127)"/>
<path d="M0 0 C1.32 0 2.64 0 4 0 C4.05382106 2.62527189 4.09358313 5.24944713 4.125 7.875 C4.14175781 8.62136719 4.15851563 9.36773437 4.17578125 10.13671875 C4.1933959 12.09194461 4.10320189 14.04742021 4 16 C3.34 16.66 2.68 17.32 2 18 C-0.625 17.625 -0.625 17.625 -3 17 C-3 16.34 -3 15.68 -3 15 C-2.34 14.67 -1.68 14.34 -1 14 C-0.52998967 10.72444392 -0.52998967 10.72444392 -0.375 6.9375 C-0.30023438 5.64714844 -0.22546875 4.35679687 -0.1484375 3.02734375 C-0.09945312 2.02832031 -0.05046875 1.02929688 0 0 Z " fill="#0C3D0B" transform="translate(69,131)"/>
<path d="M0 0 C2.475 0.495 2.475 0.495 5 1 C5 5.62 5 10.24 5 15 C3.68 15.33 2.36 15.66 1 16 C0 15 0 15 -0.09765625 11.62109375 C-0.09098369 10.22652923 -0.07902532 8.83198257 -0.0625 7.4375 C-0.05798828 6.72658203 -0.05347656 6.01566406 -0.04882812 5.28320312 C-0.03700864 3.52209987 -0.01907263 1.76103964 0 0 Z " fill="#DEE6DE" transform="translate(171,130)"/>
<path d="M0 0 C2.475 0.495 2.475 0.495 5 1 C5 5.62 5 10.24 5 15 C3.68 15.33 2.36 15.66 1 16 C0 15 0 15 -0.09765625 11.62109375 C-0.09098369 10.22652923 -0.07902532 8.83198257 -0.0625 7.4375 C-0.05798828 6.72658203 -0.05347656 6.01566406 -0.04882812 5.28320312 C-0.03700864 3.52209987 -0.01907263 1.76103964 0 0 Z " fill="#E8F0E7" transform="translate(64,130)"/>
<path d="M0 0 C0.99 0 1.98 0 3 0 C3.02578125 0.80824219 3.0515625 1.61648437 3.078125 2.44921875 C3.41398024 10.54351101 3.41398024 10.54351101 8 17 C8 17.66 8 18.32 8 19 C5.125 19.125 5.125 19.125 2 19 C0 17 0 17 -0.1953125 13.0859375 C-0.18200376 11.51550649 -0.15813602 9.94513779 -0.125 8.375 C-0.11597656 7.57320312 -0.10695313 6.77140625 -0.09765625 5.9453125 C-0.07406223 3.96341477 -0.03819065 1.98167019 0 0 Z " fill="#0F410E" transform="translate(25,131)"/>
<path d="M0 0 C0.66 0 1.32 0 2 0 C2 3.3 2 6.6 2 10 C1.01 10 0.02 10 -1 10 C-0.91621094 10.78246094 -0.83242187 11.56492187 -0.74609375 12.37109375 C-0.64425781 13.38300781 -0.54242188 14.39492188 -0.4375 15.4375 C-0.33308594 16.44683594 -0.22867188 17.45617187 -0.12109375 18.49609375 C-0.08113281 19.32238281 -0.04117188 20.14867188 0 21 C-1 22 -1 22 -3.4375 22.1875 C-6 22 -6 22 -8 20 C-8.125 17.375 -8.125 17.375 -8 15 C-7.67 15 -7.34 15 -7 15 C-6.67 11.7 -6.34 8.4 -6 5 C-5.67 5 -5.34 5 -5 5 C-5 9.62 -5 14.24 -5 19 C-4.01 19 -3.02 19 -2 19 C-2.02320313 17.96359375 -2.04640625 16.9271875 -2.0703125 15.859375 C-2.08907667 14.48959056 -2.10727618 13.1197983 -2.125 11.75 C-2.14175781 11.06808594 -2.15851563 10.38617188 -2.17578125 9.68359375 C-2.21213482 5.9391765 -2.07944349 3.17647273 0 0 Z " fill="#BFCFBF" transform="translate(134,27)"/>
<path d="M0 0 C3.3 0 6.6 0 10 0 C10.33 0.99 10.66 1.98 11 3 C11.33 2.34 11.66 1.68 12 1 C12.66 1 13.32 1 14 1 C14 2.98 14 4.96 14 7 C11.36 7.33 8.72 7.66 6 8 C6 7.34 6 6.68 6 6 C4.68 5.67 3.36 5.34 2 5 C2.99 5 3.98 5 5 5 C5 4.34 5 3.68 5 3 C4.01 2.67 3.02 2.34 2 2 C1.34 1.34 0.68 0.68 0 0 Z " fill="#DCE6DC" transform="translate(157,154)"/>
<path d="M0 0 C1.00289062 0.10183594 2.00578125 0.20367187 3.0390625 0.30859375 C3.80992188 0.39238281 4.58078125 0.47617188 5.375 0.5625 C4.385 1.0575 4.385 1.0575 3.375 1.5625 C3.375 3.2125 3.375 4.8625 3.375 6.5625 C0.075 6.8925 -3.225 7.2225 -6.625 7.5625 C-6.625 6.5725 -6.625 5.5825 -6.625 4.5625 C-6.9312434 3.22268514 -7.25951555 1.88738113 -7.625 0.5625 C-4.89657939 -0.80171031 -3.01546682 -0.31557211 0 0 Z " fill="#A2AFA2" transform="translate(79.625,154.4375)"/>
<path d="M0 0 C4.29 0 8.58 0 13 0 C12.67 1.32 12.34 2.64 12 4 C12 3.01 12 2.02 12 1 C8.37 1 4.74 1 1 1 C1 8.26 1 15.52 1 23 C4.3 22.67 7.6 22.34 11 22 C11 21.34 11 20.68 11 20 C9.02 20 7.04 20 5 20 C5 19.67 5 19.34 5 19 C7.31 19 9.62 19 12 19 C12.5625 20.9375 12.5625 20.9375 13 23 C12.67 23.33 12.34 23.66 12 24 C8.04 24 4.08 24 0 24 C0 16.08 0 8.16 0 0 Z " fill="#355B35" transform="translate(94,126)"/>
<path d="M0 0 C18.15 0.33 36.3 0.66 55 1 C55.495 2.485 55.495 2.485 56 4 C55.34 4.66 54.68 5.32 54 6 C53.505 4.515 53.505 4.515 53 3 C35.51 2.67 18.02 2.34 0 2 C0 1.34 0 0.68 0 0 Z " fill="#DEEFDD" transform="translate(88,61)"/>
<path d="M0 0 C0.33 0.66 0.66 1.32 1 2 C1.99 2.33 2.98 2.66 4 3 C3.67 8.61 3.34 14.22 3 20 C2.34 20 1.68 20 1 20 C0.67 20.99 0.34 21.98 0 23 C0 15.41 0 7.82 0 0 Z " fill="#F2F8F2" transform="translate(163,126)"/>
<path d="M0 0 C1.65 0 3.3 0 5 0 C4.39174965 4.34464536 3.73832608 8.67551867 3 13 C2.01 13 1.02 13 0 13 C-0.66 13.66 -1.32 14.32 -2 15 C-2.33 13.68 -2.66 12.36 -3 11 C-2.34 11 -1.68 11 -1 11 C-0.67 7.37 -0.34 3.74 0 0 Z " fill="#1F4A1C" transform="translate(200,126)"/>
<path d="M0 0 C0.33 0.66 0.66 1.32 1 2 C2.98 2.495 2.98 2.495 5 3 C5 6.3 5 9.6 5 13 C3.35 13 1.7 13 0 13 C0 8.71 0 4.42 0 0 Z " fill="#295428" transform="translate(119,137)"/>
<path d="M0 0 C6.87245685 -0.77592255 6.87245685 -0.77592255 10.2421875 1.54296875 C12.63544182 4.88820646 12.44386503 7.80559235 12.25 11.75 C12.23195313 12.44738281 12.21390625 13.14476562 12.1953125 13.86328125 C12.14838554 15.57611539 12.07664605 17.28823824 12 19 C11.67 19 11.34 19 11 19 C11 14.38 11 9.76 11 5 C8.36 4.67 5.72 4.34 3 4 C3 3.01 3 2.02 3 1 C1.35 1.66 -0.3 2.32 -2 3 C-1.34 2.01 -0.68 1.02 0 0 Z " fill="#2D532C" transform="translate(62,126)"/>
<path d="M0 0 C2.64 0 5.28 0 8 0 C8 2.31 8 4.62 8 7 C5.69 7 3.38 7 1 7 C0.67 4.69 0.34 2.38 0 0 Z " fill="#2D562B" transform="translate(100,65)"/>
<path d="M0 0 C5.28497409 -0.44041451 5.28497409 -0.44041451 8 0 C10.5 2.5 10.5 2.5 12 5 C11.34 6.65 10.68 8.3 10 10 C8 8 8 8 7 5 C4.69 4.67 2.38 4.34 0 4 C0 2.68 0 1.36 0 0 Z " fill="#D7E2D6" transform="translate(76,53)"/>
<path d="M0 0 C1.134375 0.020625 2.26875 0.04125 3.4375 0.0625 C3.1075 2.3725 2.7775 4.6825 2.4375 7.0625 C0.1275 7.0625 -2.1825 7.0625 -4.5625 7.0625 C-4.60504356 5.06295254 -4.60330783 3.06208364 -4.5625 1.0625 C-3.5625 0.0625 -3.5625 0.0625 0 0 Z " fill="#295328" transform="translate(125.5625,64.9375)"/>
<path d="M0 0 C2.0625 0.4375 2.0625 0.4375 4 1 C3.34 2.65 2.68 4.3 2 6 C3.65 6 5.3 6 7 6 C7.33 5.01 7.66 4.02 8 3 C8.625 4.875 8.625 4.875 9 7 C7 9 7 9 4 9.25 C1 9 1 9 -1 7 C-1.1875 3.9375 -1.1875 3.9375 -1 1 C-0.67 0.67 -0.34 0.34 0 0 Z " fill="#E8EFE7" transform="translate(98,104)"/>
<path d="M0 0 C0.33 0 0.66 0 1 0 C1.33 5.94 1.66 11.88 2 18 C0.68 18 -0.64 18 -2 18 C-2.054348 15.9377952 -2.09294961 13.87517184 -2.125 11.8125 C-2.14820313 10.66394531 -2.17140625 9.51539063 -2.1953125 8.33203125 C-2.00484152 5.08259628 -1.39360127 2.91339479 0 0 Z " fill="#073B05" transform="translate(62,130)"/>
<path d="M0 0 C2.31 0 4.62 0 7 0 C7.33 2.31 7.66 4.62 8 7 C6.02 7 4.04 7 2 7 C0.5393715 4.35261084 0 3.10551666 0 0 Z " fill="#255126" transform="translate(90,65)"/>
<path d="M0 0 C2.31 0 4.62 0 7 0 C7 2.31 7 4.62 7 7 C4.69 7 2.38 7 0 7 C0 4.69 0 2.38 0 0 Z " fill="#224D21" transform="translate(111,65)"/>
<path d="M0 0 C0.99 0 1.98 0 3 0 C3 5.28 3 10.56 3 16 C2.01 16 1.02 16 0 16 C0 10.72 0 5.44 0 0 Z " fill="#154415" transform="translate(97,30)"/>
<path d="M0 0 C0.33 0.66 0.66 1.32 1 2 C1.99 2.33 2.98 2.66 4 3 C4 6.3 4 9.6 4 13 C2.68 13 1.36 13 0 13 C-0.19397476 11.02145742 -0.38001321 9.0421352 -0.5625 7.0625 C-0.66691406 5.96035156 -0.77132812 4.85820312 -0.87890625 3.72265625 C-0.91886719 2.82417969 -0.95882812 1.92570313 -1 1 C-0.67 0.67 -0.34 0.34 0 0 Z " fill="#164416" transform="translate(52,137)"/>
<path d="M0 0 C4.455 0.99 4.455 0.99 9 2 C9 2.66 9 3.32 9 4 C2.4 4 -4.2 4 -11 4 C-10.67 3.01 -10.34 2.02 -10 1 C-6.7 1.33 -3.4 1.66 0 2 C0 1.34 0 0.68 0 0 Z " fill="#F9FBF9" transform="translate(118,71)"/>
<path d="M0 0 C0.33 0.66 0.66 1.32 1 2 C1.66 2 2.32 2 3 2 C3 5.63 3 9.26 3 13 C2.67 13 2.34 13 2 13 C1.67 15.31 1.34 17.62 1 20 C0.67 20 0.34 20 0 20 C-0.16918268 18.41693353 -0.33523936 16.83353281 -0.5 15.25 C-0.5928125 14.36828125 -0.685625 13.4865625 -0.78125 12.578125 C-1.15220213 8.20618921 -0.78082929 4.29456111 0 0 Z " fill="#D8E3D7" transform="translate(56,130)"/>
<path d="M0 0 C5.61 0 11.22 0 17 0 C17.33 1.65 17.66 3.3 18 5 C17.34 5 16.68 5 16 5 C16 4.01 16 3.02 16 2 C12.37 2.66 8.74 3.32 5 4 C5 3.34 5 2.68 5 2 C3.02 2 1.04 2 -1 2 C-0.67 1.34 -0.34 0.68 0 0 Z " fill="#F8FBF8" transform="translate(124,63)"/>
<path d="M0 0 C0.33 0.66 0.66 1.32 1 2 C3.31 2 5.62 2 8 2 C7.67 2.66 7.34 3.32 7 4 C3.7 4 0.4 4 -3 4 C-3 6.64 -3 9.28 -3 12 C-3.66 12 -4.32 12 -5 12 C-5 8.7 -5 5.4 -5 2 C-3.35 1.34 -1.7 0.68 0 0 Z " fill="#EFF6EF" transform="translate(138,35)"/>
<path d="M0 0 C-0.11455681 1.91731918 -0.24206258 3.8338675 -0.375 5.75 C-0.44460937 6.81734375 -0.51421875 7.8846875 -0.5859375 8.984375 C-0.9728223 11.80206432 -1.55686166 13.5830366 -3 16 C-4.09506492 12.71480525 -4.09960608 10.26336585 -4.0625 6.8125 C-4.05347656 5.72582031 -4.04445313 4.63914063 -4.03515625 3.51953125 C-4.02355469 2.68808594 -4.01195313 1.85664063 -4 1 C-1 0 -1 0 0 0 Z " fill="#073A07" transform="translate(81,128)"/>
<path d="M0 0 C2.31 0 4.62 0 7 0 C6.67 1.98 6.34 3.96 6 6 C3.69 6 1.38 6 -1 6 C-0.67 4.02 -0.34 2.04 0 0 Z " fill="#1C471B" transform="translate(132,66)"/>
<path d="M0 0 C0.33 0 0.66 0 1 0 C1.33 4.29 1.66 8.58 2 13 C-2.455 13.495 -2.455 13.495 -7 14 C-7 13.67 -7 13.34 -7 13 C-5.35 13 -3.7 13 -2 13 C-1.93941406 12.22914063 -1.87882813 11.45828125 -1.81640625 10.6640625 C-1.73261719 9.66117188 -1.64882812 8.65828125 -1.5625 7.625 C-1.48128906 6.62726563 -1.40007812 5.62953125 -1.31640625 4.6015625 C-1 2 -1 2 0 0 Z " fill="#C1D2C1" transform="translate(193,136)"/>
<path d="M0 0 C0.33 0 0.66 0 1 0 C1.33 3.3 1.66 6.6 2 10 C2.66 7.69 3.32 5.38 4 3 C4.33 3 4.66 3 5 3 C5.02696365 4.79158489 5.04637917 6.58328473 5.0625 8.375 C5.07410156 9.37273437 5.08570312 10.37046875 5.09765625 11.3984375 C5 14 5 14 4 16 C3.01 16 2.02 16 1 16 C-0.14077657 12.57767028 -0.09815117 9.91326783 -0.0625 6.3125 C-0.05347656 5.13300781 -0.04445313 3.95351562 -0.03515625 2.73828125 C-0.02355469 1.83464844 -0.01195313 0.93101562 0 0 Z " fill="#2D532D" transform="translate(76,131)"/>
<path d="M0 0 C1.98 0 3.96 0 6 0 C6 2.31 6 4.62 6 7 C4.35 7 2.7 7 1 7 C0.67 4.69 0.34 2.38 0 0 Z " fill="#2E542C" transform="translate(103,76)"/>
<path d="M0 0 C1.98 0 3.96 0 6 0 C5.67 2.31 5.34 4.62 5 7 C3.35 7 1.7 7 0 7 C0 4.69 0 2.38 0 0 Z " fill="#174714" transform="translate(120,76)"/>
<path d="M0 0 C1.98 0 3.96 0 6 0 C6.66 2.31 7.32 4.62 8 7 C6.02 7 4.04 7 2 7 C1.34 4.69 0.68 2.38 0 0 Z " fill="#144013" transform="translate(93,76)"/>
<path d="M0 0 C1.4540625 0.0309375 1.4540625 0.0309375 2.9375 0.0625 C2.2775 2.3725 1.6175 4.6825 0.9375 7.0625 C-0.7125 7.0625 -2.3625 7.0625 -4.0625 7.0625 C-4.10504356 5.06295254 -4.10330783 3.06208364 -4.0625 1.0625 C-3.0625 0.0625 -3.0625 0.0625 0 0 Z " fill="#164213" transform="translate(133.0625,75.9375)"/>
<path d="M0 0 C2.01822917 0.06510417 4.03645833 0.13020833 6.0546875 0.1953125 C4.0746875 1.1853125 4.0746875 1.1853125 2.0546875 2.1953125 C2.3846875 2.8553125 2.7146875 3.5153125 3.0546875 4.1953125 C2.0646875 4.1953125 1.0746875 4.1953125 0.0546875 4.1953125 C0.0546875 8.8153125 0.0546875 13.4353125 0.0546875 18.1953125 C-0.2753125 18.1953125 -0.6053125 18.1953125 -0.9453125 18.1953125 C-1.01878906 16.58849609 -1.01878906 16.58849609 -1.09375 14.94921875 C-1.16876544 13.55205611 -1.2443138 12.154922 -1.3203125 10.7578125 C-1.35125 10.05076172 -1.3821875 9.34371094 -1.4140625 8.61523438 C-1.51811879 6.80292062 -1.72451142 4.99713262 -1.9453125 3.1953125 C-2.6053125 2.8653125 -3.2653125 2.5353125 -3.9453125 2.1953125 C-1.9453125 0.1953125 -1.9453125 0.1953125 0 0 Z " fill="#446942" transform="translate(170.9453125,125.8046875)"/>
<path d="M0 0 C1.65 0 3.3 0 5 0 C5 2.31 5 4.62 5 7 C3.35 7 1.7 7 0 7 C0 4.69 0 2.38 0 0 Z " fill="#114210" transform="translate(112,76)"/>
<path d="M0 0 C0.66 0 1.32 0 2 0 C2 3.3 2 6.6 2 10 C1.01 10 0.02 10 -1 10 C-1 12.64 -1 15.28 -1 18 C-1.33 18 -1.66 18 -2 18 C-2.054138 15.75026553 -2.09285491 13.50015617 -2.125 11.25 C-2.14820313 9.99703125 -2.17140625 8.7440625 -2.1953125 7.453125 C-2.01537302 4.27179508 -1.68998582 2.63478104 0 0 Z " fill="#CCDACB" transform="translate(134,27)"/>
<path d="M0 0 C0.33 0 0.66 0 1 0 C1.07347656 1.24716797 1.07347656 1.24716797 1.1484375 2.51953125 C1.22320312 3.60621094 1.29796875 4.69289062 1.375 5.8125 C1.44460937 6.89144531 1.51421875 7.97039062 1.5859375 9.08203125 C1.81195733 12.18626186 1.81195733 12.18626186 4 15 C4.99 15.66 5.98 16.32 7 17 C4.36 17 1.72 17 -1 17 C-1.33 16.34 -1.66 15.68 -2 15 C-1.34 14.67 -0.68 14.34 0 14 C0 9.38 0 4.76 0 0 Z " fill="#3C603B" transform="translate(63,133)"/>
<path d="M0 0 C1.32 0.33 2.64 0.66 4 1 C4 2.32 4 3.64 4 5 C5.32 5.33 6.64 5.66 8 6 C7.05125 6.0825 6.1025 6.165 5.125 6.25 C4.09375 6.4975 3.0625 6.745 2 7 C1.34 8.32 0.68 9.64 0 11 C0 7.37 0 3.74 0 0 Z " fill="#EFF6EF" transform="translate(30,130)"/>
<path d="M0 0 C0.66 0 1.32 0 2 0 C0.87548273 2.9719385 -0.22293791 5.33440687 -2 8 C0.31 8 2.62 8 5 8 C5 8.33 5 8.66 5 9 C3.741875 9.04125 2.48375 9.0825 1.1875 9.125 C0.47980469 9.14820313 -0.22789062 9.17140625 -0.95703125 9.1953125 C-3 9 -3 9 -6 7 C-5.04882866 5.8274869 -4.08882991 4.66212985 -3.125 3.5 C-2.59132812 2.8503125 -2.05765625 2.200625 -1.5078125 1.53125 C-0.76144531 0.77328125 -0.76144531 0.77328125 0 0 Z " fill="#CAD7C9" transform="translate(142,28)"/>
<path d="M0 0 C1.65 0 3.3 0 5 0 C5.66 2.31 6.32 4.62 7 7 C6.01 6.67 5.02 6.34 4 6 C3.01 6.495 3.01 6.495 2 7 C0.5393715 4.35261084 0 3.10551666 0 0 Z " fill="#265024" transform="translate(125,126)"/>
<path d="M0 0 C0.33 0.66 0.66 1.32 1 2 C1.66 2.33 2.32 2.66 3 3 C2.67 3.66 2.34 4.32 2 5 C1.76827173 7.54615009 1.58105471 10.07396225 1.4375 12.625 C1.39431641 13.33140625 1.35113281 14.0378125 1.30664062 14.765625 C1.20055249 16.51018537 1.09977111 18.25506697 1 20 C0.67 20 0.34 20 0 20 C0 15.05 0 10.1 0 5 C-0.66 5 -1.32 5 -2 5 C-1.34 3.35 -0.68 1.7 0 0 Z " fill="#3A5E3A" transform="translate(100,25)"/>
<path d="M0 0 C1.66611905 -0.042721 3.33382885 -0.04063832 5 0 C6 1 6 1 6.0625 3.5625 C6.041875 4.366875 6.02125 5.17125 6 6 C5.34 6 4.68 6 4 6 C4 5.34 4 4.68 4 4 C3.01 4 2.02 4 1 4 C0.67 4.66 0.34 5.32 0 6 C0 4.02 0 2.04 0 0 Z " fill="#7A8D7B" transform="translate(142,155)"/>
<path d="M0 0 C2.31 0 4.62 0 7 0 C7.5625 1.9375 7.5625 1.9375 8 4 C7 5 7 5 4.27734375 5.09765625 C2.62412109 5.08025391 2.62412109 5.08025391 0.9375 5.0625 C-0.16722656 5.05347656 -1.27195312 5.04445312 -2.41015625 5.03515625 C-3.69212891 5.01775391 -3.69212891 5.01775391 -5 5 C-5 4.67 -5 4.34 -5 4 C0.445 3.505 0.445 3.505 6 3 C6 2.34 6 1.68 6 1 C4.02 1 2.04 1 0 1 C0 0.67 0 0.34 0 0 Z " fill="#607D5F" transform="translate(99,145)"/>
<path d="M0 0 C0.33 0 0.66 0 1 0 C1.33 3.63 1.66 7.26 2 11 C2.99 10.34 3.98 9.68 5 9 C5 10.65 5 12.3 5 14 C3.68 14.33 2.36 14.66 1 15 C-0.44207941 12.11584117 -0.09394887 9.58278472 -0.0625 6.375 C-0.05347656 5.18648437 -0.04445313 3.99796875 -0.03515625 2.7734375 C-0.02355469 1.85820312 -0.01195313 0.94296875 0 0 Z " fill="#D5E2D5" transform="translate(81,131)"/>
<path d="M0 0 C2.625 0.375 2.625 0.375 5 1 C4.67 2.98 4.34 4.96 4 7 C3.34 7 2.68 7 2 7 C0.61767557 5.37373596 -0.71937515 3.7074998 -2 2 C-1.34 1.34 -0.68 0.68 0 0 Z " fill="#0F400D" transform="translate(118,127)"/>
<path d="M0 0 C3 1 3 1 6 3 C6 3.99 6 4.98 6 6 C5.21625 5.79375 4.4325 5.5875 3.625 5.375 C2.325625 5.189375 2.325625 5.189375 1 5 C0.34 5.66 -0.32 6.32 -1 7 C-1.04254356 5.00045254 -1.04080783 2.99958364 -1 1 C-0.67 0.67 -0.34 0.34 0 0 Z " fill="#89A08A" transform="translate(123,104)"/>
<path d="M0 0 C1.98 0 3.96 0 6 0 C6 1.98 6 3.96 6 6 C5.67 5.34 5.34 4.68 5 4 C3.68 4 2.36 4 1 4 C0.67 4.66 0.34 5.32 0 6 C0 4.02 0 2.04 0 0 Z " fill="#788A78" transform="translate(99,155)"/>
<path d="M0 0 C0.66 0 1.32 0 2 0 C2.5345256 1.24420647 3.05208611 2.49570936 3.5625 3.75 C3.85253906 4.44609375 4.14257812 5.1421875 4.44140625 5.859375 C5.07831803 8.30012784 4.80248831 9.6403655 4 12 C3.34 10.02 2.68 8.04 2 6 C1.67 7.98 1.34 9.96 1 12 C0.67 12 0.34 12 0 12 C0 8.04 0 4.08 0 0 Z " fill="#ACBEAB" transform="translate(180,131)"/>
<path d="M0 0 C2.475 0.495 2.475 0.495 5 1 C4.67 2.65 4.34 4.3 4 6 C2.68 6 1.36 6 0 6 C0 4.02 0 2.04 0 0 Z " fill="#D8E5D8" transform="translate(114,130)"/>
<path d="M0 0 C0.33 0 0.66 0 1 0 C1 4.62 1 9.24 1 14 C0.34 14 -0.32 14 -1 14 C-1.33 14.99 -1.66 15.98 -2 17 C-2 13.7 -2 10.4 -2 7 C-1.67 7 -1.34 7 -1 7 C-0.67 4.69 -0.34 2.38 0 0 Z " fill="#C3D0C1" transform="translate(165,132)"/>
<path d="M0 0 C1.98 0 3.96 0 6 0 C6 1.65 6 3.3 6 5 C6.66 5 7.32 5 8 5 C8 5.99 8 6.98 8 8 C9.32 8.33 10.64 8.66 12 9 C6.25 9.125 6.25 9.125 4 8 C4.33 5.69 4.66 3.38 5 1 C3.35 1 1.7 1 0 1 C0 0.67 0 0.34 0 0 Z " fill="#B8C9B8" transform="translate(121,75)"/>
<path d="M0 0 C0 2.31 0 4.62 0 7 C2.31 7 4.62 7 7 7 C7 7.33 7 7.66 7 8 C-0.75 8.125 -0.75 8.125 -3 7 C-3 5.02 -3 3.04 -3 1 C-1 0 -1 0 0 0 Z " fill="#E5F0E4" transform="translate(111,65)"/>
<path d="M0 0 C1.32 0 2.64 0 4 0 C3.39009109 3.55780196 2.4216319 6.6828589 1 10 C0.67 10 0.34 10 0 10 C0 6.7 0 3.4 0 0 Z " fill="#053C04" transform="translate(191,127)"/>
<path d="M0 0 C1.98 0 3.96 0 6 0 C6.5625 1.9375 6.5625 1.9375 7 4 C6 5 6 5 2.9375 5.0625 C1.968125 5.041875 0.99875 5.02125 0 5 C0 6.65 0 8.3 0 10 C-0.33 10 -0.66 10 -1 10 C-1 8.02 -1 6.04 -1 4 C0.98 4 2.96 4 5 4 C3.74458443 1.48916886 2.49936512 1.12874554 0 0 Z " fill="#668167" transform="translate(99,135)"/>
<path d="M0 0 C0 3.96 0 7.92 0 12 C-2.18975773 8.71536341 -2.99806563 5.79303725 -4 2 C-1 0 -1 0 0 0 Z " fill="#E8F3EA" transform="translate(158,126)"/>
<path d="M0 0 C1.65 0 3.3 0 5 0 C4.34 1.98 3.68 3.96 3 6 C2.34 5.34 1.68 4.68 1 4 C0.01 4.66 -0.98 5.32 -2 6 C-1.34 4.02 -0.68 2.04 0 0 Z " fill="#375833" transform="translate(136,126)"/>
<path d="M0 0 C1.485 0.99 1.485 0.99 3 2 C3.33 1.34 3.66 0.68 4 0 C4.66 0 5.32 0 6 0 C6 1.98 6 3.96 6 6 C4.68 5.34 3.36 4.68 2 4 C1.34 4.66 0.68 5.32 0 6 C0 4.02 0 2.04 0 0 Z " fill="#67816A" transform="translate(165,155)"/>
<path d="M0 0 C1.65 0 3.3 0 5 0 C5 1.98 5 3.96 5 6 C3.35 6 1.7 6 0 6 C0 4.02 0 2.04 0 0 Z " fill="#7C8E7D" transform="translate(157,155)"/>
<path d="M0 0 C1.32 0 2.64 0 4 0 C4 1.98 4 3.96 4 6 C2.68 6 1.36 6 0 6 C0 4.02 0 2.04 0 0 Z " fill="#E7F0E6" transform="translate(47,130)"/>
<path d="M0 0 C2.64 0 5.28 0 8 0 C8 0.99 8 1.98 8 3 C8.66 3 9.32 3 10 3 C9.67 4.65 9.34 6.3 9 8 C8.01 7.67 7.02 7.34 6 7 C6.33 5.02 6.66 3.04 7 1 C4.69 1 2.38 1 0 1 C0 0.67 0 0.34 0 0 Z " fill="#C4D5C4" transform="translate(132,65)"/>
<path d="M0 0 C0.99 0.33 1.98 0.66 3 1 C4.1875 3.5625 4.1875 3.5625 5 6 C2.69 6 0.38 6 -2 6 C-1.34 4.02 -0.68 2.04 0 0 Z " fill="#718571" transform="translate(66,155)"/>
<path d="M0 0 C0.99 0 1.98 0 3 0 C3 2.97 3 5.94 3 9 C2.01 8.67 1.02 8.34 0 8 C0 5.36 0 2.72 0 0 Z " fill="#033C02" transform="translate(34,138)"/>
<path d="M0 0 C2.97 0.495 2.97 0.495 6 1 C6 1.66 6 2.32 6 3 C5.01 3.33 4.02 3.66 3 4 C2.01 5.485 2.01 5.485 1 7 C0.34 6.34 -0.32 5.68 -1 5 C-0.625 2.375 -0.625 2.375 0 0 Z " fill="#F7F9F5" transform="translate(94,83)"/>
<path d="M0 0 C1.65 0 3.3 0 5 0 C5 1.32 5 2.64 5 4 C4.01 4 3.02 4 2 4 C2 4.66 2 5.32 2 6 C1.34 6 0.68 6 0 6 C0 4.02 0 2.04 0 0 Z " fill="#7E8F7F" transform="translate(58,155)"/>
<path d="M0 0 C0.5625 1.9375 0.5625 1.9375 1 4 C0.67 4.33 0.34 4.66 0 5 C1.65 5.33 3.3 5.66 5 6 C4.67 6.66 4.34 7.32 4 8 C1.36 7.67 -1.28 7.34 -4 7 C-2.68 4.69 -1.36 2.38 0 0 Z " fill="#E2ECE2" transform="translate(149,32)"/>
<path d="M0 0 C0.99 0.33 1.98 0.66 3 1 C3.33 2.98 3.66 4.96 4 7 C3.34 7 2.68 7 2 7 C1.67 7.66 1.34 8.32 1 9 C0.67 6.03 0.34 3.06 0 0 Z " fill="#E1E9DE" transform="translate(94,86)"/>
<path d="M0 0 C1.32 0 2.64 0 4 0 C4 1.98 4 3.96 4 6 C3.01 6 2.02 6 1 6 C0.67 4.02 0.34 2.04 0 0 Z " fill="#063C04" transform="translate(104,76)"/>
<path d="M0 0 C0 0.99 0 1.98 0 3 C-2.97 3 -5.94 3 -9 3 C-8.67 2.34 -8.34 1.68 -8 1 C-5.2303041 0.27113266 -2.87137415 0 0 0 Z " fill="#F9FAF9" transform="translate(140,72)"/>
<path d="M0 0 C0.66 0 1.32 0 2 0 C2.042721 1.66611905 2.04063832 3.33382885 2 5 C1 6 1 6 -1.5625 6.0625 C-2.7690625 6.0315625 -2.7690625 6.0315625 -4 6 C-4 5.34 -4 4.68 -4 4 C-3.01 3.67 -2.02 3.34 -1 3 C-0.67 2.01 -0.34 1.02 0 0 Z " fill="#ECF3ED" transform="translate(101,42)"/>
<path d="M0 0 C1.65 0 3.3 0 5 0 C5 1.32 5 2.64 5 4 C3.68 4 2.36 4 1 4 C0.67 4.66 0.34 5.32 0 6 C0 4.02 0 2.04 0 0 Z " fill="#7C8A7A" transform="translate(92,155)"/>
<path d="M0 0 C0.33 0 0.66 0 1 0 C1.36923077 6.52307692 1.36923077 6.52307692 -0.5 8.9375 C-0.995 9.288125 -1.49 9.63875 -2 10 C-2.33 8.68 -2.66 7.36 -3 6 C-2.34 6 -1.68 6 -1 6 C-0.67 4.02 -0.34 2.04 0 0 Z " fill="#28562A" transform="translate(200,131)"/>
<path d="M0 0 C1.74627478 2.61941217 2.38722388 4.03824877 3 7 C2.01 7.33 1.02 7.66 0 8 C-0.66 5.69 -1.32 3.38 -2 1 C-1.34 0.67 -0.68 0.34 0 0 Z " fill="#DCE9DE" transform="translate(124,126)"/>
<path d="M0 0 C2.31 0 4.62 0 7 0 C6.67 0.66 6.34 1.32 6 2 C3.6859378 2.73075648 1.35171131 3.40138258 -1 4 C-0.67 2.68 -0.34 1.36 0 0 Z " fill="#0F3E0E" transform="translate(123,101)"/>
<path d="M0 0 C3.63 0 7.26 0 11 0 C11.33 0.99 11.66 1.98 12 3 C11.34 3.66 10.68 4.32 10 5 C9.67 4.01 9.34 3.02 9 2 C6.03 1.67 3.06 1.34 0 1 C0 0.67 0 0.34 0 0 Z " fill="#D8EAD6" transform="translate(132,62)"/>
<path d="M0 0 C1.9451 2.91765 2.45276317 4.62537285 3 8 C2.34 8 1.68 8 1 8 C0.67 8.99 0.34 9.98 0 11 C-0.33 9.35 -0.66 7.7 -1 6 C-0.34 6 0.32 6 1 6 C0.67 4.02 0.34 2.04 0 0 Z " fill="#234A24" transform="translate(155,132)"/>
<path d="M0 0 C2.31 0 4.62 0 7 0 C7 0.66 7 1.32 7 2 C4.36 2.33 1.72 2.66 -1 3 C-0.67 2.01 -0.34 1.02 0 0 Z " fill="#093807" transform="translate(110,19)"/>
</svg>
